<?xml version="1.0" standalone="no"?>
<!DOCTYPE svg PUBLIC "-//W3C//DTD SVG 20010904//EN"
 "http://www.w3.org/TR/2001/REC-SVG-20010904/DTD/svg10.dtd">
<svg version="1.0" xmlns="http://www.w3.org/2000/svg"
 width="700.000000pt" height="700.000000pt" viewBox="0 0 700.000000 700.000000"
 preserveAspectRatio="xMidYMid meet">
<metadata>
Created by potrace 1.11, written by Peter Selinger 2001-2013
</metadata>
<g transform="translate(0.000000,700.000000) scale(0.100000,-0.100000)"
fill="#000000" stroke="none">
<path d="M5460 5525 c-728 -432 -1327 -785 -1330 -785 -3 0 -18 21 -35 48
-137 217 -423 488 -685 648 -698 425 -1602 432 -2302 15 -602 -359 -994 -953
-1089 -1651 -20 -140 -17 -460 5 -600 74 -491 293 -929 635 -1271 529 -529
1282 -757 2026 -613 412 80 806 286 1118 584 58 55 107 100 110 100 3 0 452
-297 998 -659 547 -363 995 -659 996 -657 2 1 -243 644 -543 1427 -301 783
-547 1429 -547 1435 0 6 451 622 1002 1369 997 1351 1016 1378 975 1392 -5 2
-605 -350 -1334 -782z m1233 663 c-109 -141 -1927 -2615 -1930 -2627 -2 -9
230 -628 516 -1375 287 -748 519 -1361 517 -1364 -6 -5 -3855 2552 -3849 2558
5 5 4746 2818 4752 2819 2 1 -1 -5 -6 -11z"/>
</g>
</svg>
